<svg width="49" height="48" viewBox="0 0 49 48" fill="none" xmlns="http://www.w3.org/2000/svg">
<rect x="1" y="1" width="47" height="46" rx="5" fill="white" stroke="black" stroke-width="2"/>
<path d="M18.2005 10.4004C18.3721 10.4001 18.5398 10.4517 18.6815 10.5485C18.8232 10.6453 18.9323 10.7827 18.9944 10.9427L23.1254 21.5677L23.1407 21.6051L23.4297 22.348L22.5338 24.7348L21.7586 22.7458H14.6424L13.0444 26.8598C13.0039 26.9639 12.9432 27.0591 12.866 27.1398C12.7887 27.2205 12.6962 27.2852 12.5939 27.3302C12.4916 27.3752 12.3815 27.3996 12.2698 27.402C12.1581 27.4044 12.0469 27.3848 11.9428 27.3443C11.8387 27.3038 11.7435 27.2431 11.6628 27.1658C11.5821 27.0886 11.5174 26.9961 11.4724 26.8938C11.4274 26.7915 11.403 26.6814 11.4006 26.5697C11.3982 26.4579 11.4178 26.3468 11.4583 26.2427L13.262 21.6034L13.2756 21.5677L17.41 10.941C17.4722 10.7819 17.5809 10.6452 17.7219 10.5488C17.8629 10.4523 18.0297 10.4006 18.2005 10.4004ZM15.3054 21.0458H21.099L18.2022 13.5964L15.3054 21.0458ZM29.1961 16.0478C29.1346 15.8866 29.0255 15.748 28.8833 15.6504C28.7412 15.5527 28.5727 15.5006 28.4002 15.5009C28.2277 15.5013 28.0594 15.5541 27.9177 15.6524C27.7759 15.7507 27.6674 15.8898 27.6066 16.0512L20.1623 35.9004H19.0505C18.8251 35.9004 18.6089 35.9899 18.4495 36.1493C18.2901 36.3088 18.2005 36.525 18.2005 36.7504C18.2005 36.9758 18.2901 37.192 18.4495 37.3514C18.6089 37.5108 18.8251 37.6004 19.0505 37.6004H22.4505C22.6759 37.6004 22.8921 37.5108 23.0515 37.3514C23.2109 37.192 23.3005 36.9758 23.3005 36.7504C23.3005 36.525 23.2109 36.3088 23.0515 36.1493C22.8921 35.9899 22.6759 35.9004 22.4505 35.9004H21.9779L23.8904 30.8004H33.0245L34.9778 35.9004H34.3505C34.1251 35.9004 33.9089 35.9899 33.7495 36.1493C33.5901 36.3088 33.5005 36.525 33.5005 36.7504C33.5005 36.9758 33.5901 37.192 33.7495 37.3514C33.9089 37.5108 34.1251 37.6004 34.3505 37.6004H37.7505C37.9759 37.6004 38.1921 37.5108 38.3515 37.3514C38.5109 37.192 38.6005 36.9758 38.6005 36.7504C38.6005 36.525 38.5109 36.3088 38.3515 36.1493C38.1921 35.9899 37.9759 35.9004 37.7505 35.9004H36.7985L29.1961 16.0478ZM32.3734 29.1004H24.5279L28.409 18.7474L32.3734 29.1004Z" fill="black"/>
</svg>
