<svg width="64" height="64" viewBox="0 0 64 64" fill="none" xmlns="http://www.w3.org/2000/svg">
<g filter="url(#filter0_d_103_9428)">
<path d="M32 56C47.464 56 60 43.464 60 28C60 12.536 47.464 0 32 0C16.536 0 4 12.536 4 28C4 43.464 16.536 56 32 56Z" fill="white"/>
</g>
<path d="M29.0623 11.4375L28.7681 12.3199C28.4802 13.1836 28.0895 14.0096 27.6046 14.7801C26.9541 15.8058 26.0649 16.6586 25.0131 17.2659C23.9612 17.8732 22.778 18.2168 21.5645 18.2674C20.6554 18.3018 19.7454 18.2271 18.854 18.0447L17.9424 17.8579L15.5049 22.0796L16.1224 22.7767C16.7301 23.4625 17.2485 24.2133 17.671 25.0128C18.2339 26.089 18.528 27.2855 18.528 28.5C18.528 29.7145 18.2339 30.911 17.671 31.9872C17.2461 32.7918 16.7262 33.5425 16.1224 34.2233L15.5049 34.9204L17.9424 39.1421L18.8524 38.9553C19.7448 38.7727 20.6559 38.6979 21.5661 38.7326C22.7794 38.7835 23.9622 39.1272 25.0138 39.7344C26.0653 40.3417 26.9542 41.1945 27.6046 42.2199C28.0856 42.9836 28.4773 43.8108 28.7681 44.6801L29.0623 45.5625H33.9373L34.2314 44.6801C34.5239 43.807 34.9117 42.9869 35.3949 42.2199C36.0454 41.1942 36.9346 40.3414 37.9865 39.7341C39.0383 39.1268 40.2215 38.7832 41.435 38.7326C42.3442 38.6982 43.2542 38.7729 44.1455 38.9553L45.0571 39.1421L47.4946 34.9204L46.8771 34.2233C46.2734 33.5425 45.7534 32.7918 45.3285 31.9872C44.7656 30.911 44.4715 29.7145 44.4715 28.5C44.4715 27.2855 44.7656 26.089 45.3285 25.0128C45.751 24.2133 46.2694 23.4625 46.8771 22.7767L47.4946 22.0796L45.0571 17.8579L44.1471 18.0447C43.2547 18.2273 42.3436 18.3021 41.4334 18.2674C40.2202 18.2165 39.0373 17.8728 37.9857 17.2655C36.9342 16.6583 36.0453 15.8055 35.3949 14.7801C34.91 14.0096 34.5194 13.1836 34.2314 12.3199L33.9373 11.4375H29.0623Z" stroke="#015E8D" stroke-width="1.5"/>
<path d="M37.1901 28.5003C37.1901 30.0096 36.5905 31.4571 35.5233 32.5243C34.4561 33.5915 33.0086 34.1911 31.4993 34.1911C29.9901 34.1911 28.5426 33.5915 27.4754 32.5243C26.4082 31.4571 25.8086 30.0096 25.8086 28.5003C25.8086 26.991 26.4082 25.5436 27.4754 24.4764C28.5426 23.4091 29.9901 22.8096 31.4993 22.8096C33.0086 22.8096 34.4561 23.4091 35.5233 24.4764C36.5905 25.5436 37.1901 26.991 37.1901 28.5003Z" stroke="#015E8D" stroke-width="1.5"/>
<defs>
<filter id="filter0_d_103_9428" x="0" y="0" width="64" height="64" filterUnits="userSpaceOnUse" color-interpolation-filters="sRGB">
<feFlood flood-opacity="0" result="BackgroundImageFix"/>
<feColorMatrix in="SourceAlpha" type="matrix" values="0 0 0 0 0 0 0 0 0 0 0 0 0 0 0 0 0 0 127 0" result="hardAlpha"/>
<feOffset dy="4"/>
<feGaussianBlur stdDeviation="2"/>
<feComposite in2="hardAlpha" operator="out"/>
<feColorMatrix type="matrix" values="0 0 0 0 0 0 0 0 0 0 0 0 0 0 0 0 0 0 0.25 0"/>
<feBlend mode="normal" in2="BackgroundImageFix" result="effect1_dropShadow_103_9428"/>
<feBlend mode="normal" in="SourceGraphic" in2="effect1_dropShadow_103_9428" result="shape"/>
</filter>
</defs>
</svg>
