<svg width="64" height="64" viewBox="0 0 64 64" fill="none" xmlns="http://www.w3.org/2000/svg">
<g filter="url(#filter0_d_103_9417)">
<path d="M32 56C47.464 56 60 43.464 60 28C60 12.536 47.464 0 32 0C16.536 0 4 12.536 4 28C4 43.464 16.536 56 32 56Z" fill="#E9F3F8"/>
</g>
<path d="M41.25 25.0625V39.0781C41.25 39.4782 41.1712 39.8745 41.0181 40.2441C40.8649 40.6138 40.6405 40.9497 40.3576 41.2326C40.0747 41.5155 39.7388 41.7399 39.3691 41.8931C38.9995 42.0462 38.6032 42.125 38.2031 42.125H19.9219C19.1138 42.125 18.3388 41.804 17.7674 41.2326C17.196 40.6612 16.875 39.8862 16.875 39.0781V20.7969C16.875 19.9888 17.196 19.2138 17.7674 18.6424C18.3388 18.071 19.1138 17.75 19.9219 17.75H32.6791" stroke="#015E8D" stroke-width="1.5" stroke-linecap="round" stroke-linejoin="round"/>
<path d="M47.0346 12.0562C46.9233 11.9339 46.7883 11.8354 46.6379 11.7667C46.4875 11.6981 46.3247 11.6606 46.1594 11.6566C45.994 11.6526 45.8296 11.6822 45.6761 11.7435C45.5225 11.8049 45.3829 11.8967 45.2659 12.0135L44.3236 12.9512C44.2094 13.0655 44.1453 13.2204 44.1453 13.3819C44.1453 13.5435 44.2094 13.6984 44.3236 13.8127L45.1874 14.675C45.244 14.7319 45.3113 14.777 45.3855 14.8078C45.4596 14.8386 45.539 14.8544 45.6193 14.8544C45.6996 14.8544 45.779 14.8386 45.8532 14.8078C45.9273 14.777 45.9946 14.7319 46.0512 14.675L46.9698 13.7609C47.4345 13.297 47.4779 12.5414 47.0346 12.0562ZM42.4186 14.8555L28.668 28.5817C28.5847 28.6647 28.5241 28.7678 28.4921 28.881L27.856 30.7754C27.8408 30.8268 27.8397 30.8814 27.8529 30.9333C27.8661 30.9853 27.8931 31.0327 27.931 31.0707C27.9689 31.1086 28.0163 31.1355 28.0683 31.1487C28.1203 31.1619 28.1748 31.1608 28.2262 31.1456L30.1191 30.5096C30.2323 30.4776 30.3354 30.417 30.4185 30.3336L44.1446 16.5815C44.2716 16.4532 44.3428 16.2799 44.3428 16.0994C44.3428 15.9188 44.2716 15.7456 44.1446 15.6172L43.3867 14.8555C43.2582 14.7273 43.0841 14.6554 42.9026 14.6554C42.7212 14.6554 42.5471 14.7273 42.4186 14.8555Z" fill="#015E8D"/>
<defs>
<filter id="filter0_d_103_9417" x="0" y="0" width="64" height="64" filterUnits="userSpaceOnUse" color-interpolation-filters="sRGB">
<feFlood flood-opacity="0" result="BackgroundImageFix"/>
<feColorMatrix in="SourceAlpha" type="matrix" values="0 0 0 0 0 0 0 0 0 0 0 0 0 0 0 0 0 0 127 0" result="hardAlpha"/>
<feOffset dy="4"/>
<feGaussianBlur stdDeviation="2"/>
<feComposite in2="hardAlpha" operator="out"/>
<feColorMatrix type="matrix" values="0 0 0 0 0 0 0 0 0 0 0 0 0 0 0 0 0 0 0.25 0"/>
<feBlend mode="normal" in2="BackgroundImageFix" result="effect1_dropShadow_103_9417"/>
<feBlend mode="normal" in="SourceGraphic" in2="effect1_dropShadow_103_9417" result="shape"/>
</filter>
</defs>
</svg>
