<svg width="64" height="64" viewBox="0 0 64 64" fill="none" xmlns="http://www.w3.org/2000/svg">
<g filter="url(#filter0_d_103_9423)">
<path d="M32 56C47.464 56 60 43.464 60 28C60 12.536 47.464 0 32 0C16.536 0 4 12.536 4 28C4 43.464 16.536 56 32 56Z" fill="white"/>
</g>
<path d="M20.125 19.375H25V16.125L28.25 12.875H33.125L36.375 16.125V19.375H41.25C42.5429 19.375 43.7829 19.8886 44.6971 20.8029C45.6114 21.7171 46.125 22.9571 46.125 24.25V37.25C46.125 38.5429 45.6114 39.7829 44.6971 40.6971C43.7829 41.6114 42.5429 42.125 41.25 42.125H20.125C18.8321 42.125 17.5921 41.6114 16.6779 40.6971C15.7636 39.7829 15.25 38.5429 15.25 37.25V24.25C15.25 22.9571 15.7636 21.7171 16.6779 20.8029C17.5921 19.8886 18.8321 19.375 20.125 19.375ZM28.9162 14.5L26.625 16.7912V19.375H34.75V16.7912L32.4588 14.5H28.9162ZM20.125 21C19.263 21 18.4364 21.3424 17.8269 21.9519C17.2174 22.5614 16.875 23.388 16.875 24.25V37.25C16.875 38.112 17.2174 38.9386 17.8269 39.5481C18.4364 40.1576 19.263 40.5 20.125 40.5H41.25C42.112 40.5 42.9386 40.1576 43.5481 39.5481C44.1576 38.9386 44.5 38.112 44.5 37.25V24.25C44.5 23.388 44.1576 22.5614 43.5481 21.9519C42.9386 21.3424 42.112 21 41.25 21H20.125Z" fill="#015E8D"/>
<defs>
<filter id="filter0_d_103_9423" x="0" y="0" width="64" height="64" filterUnits="userSpaceOnUse" color-interpolation-filters="sRGB">
<feFlood flood-opacity="0" result="BackgroundImageFix"/>
<feColorMatrix in="SourceAlpha" type="matrix" values="0 0 0 0 0 0 0 0 0 0 0 0 0 0 0 0 0 0 127 0" result="hardAlpha"/>
<feOffset dy="4"/>
<feGaussianBlur stdDeviation="2"/>
<feComposite in2="hardAlpha" operator="out"/>
<feColorMatrix type="matrix" values="0 0 0 0 0 0 0 0 0 0 0 0 0 0 0 0 0 0 0.25 0"/>
<feBlend mode="normal" in2="BackgroundImageFix" result="effect1_dropShadow_103_9423"/>
<feBlend mode="normal" in="SourceGraphic" in2="effect1_dropShadow_103_9423" result="shape"/>
</filter>
</defs>
</svg>
