<svg width="60" height="60" viewBox="0 0 60 60" fill="none" xmlns="http://www.w3.org/2000/svg">
<path d="M12.5 7.5H45C46.9891 7.5 48.8968 8.29018 50.3033 9.6967C51.7098 11.1032 52.5 13.0109 52.5 15V47.5C52.5 49.4891 51.7098 51.3968 50.3033 52.8033C48.8968 54.2098 46.9891 55 45 55H12.5C10.5109 55 8.60322 54.2098 7.1967 52.8033C5.79018 51.3968 5 49.4891 5 47.5V15C5 13.0109 5.79018 11.1032 7.1967 9.6967C8.60322 8.29018 10.5109 7.5 12.5 7.5ZM12.5 10C11.1739 10 9.90215 10.5268 8.96447 11.4645C8.02678 12.4021 7.5 13.6739 7.5 15V43.975L18.225 33.225L24.475 39.475L36.975 26.975L50 40V15C50 13.6739 49.4732 12.4021 48.5355 11.4645C47.5979 10.5268 46.3261 10 45 10H12.5ZM24.475 43.025L18.225 36.775L7.5 47.5C7.5 48.8261 8.02678 50.0979 8.96447 51.0355C9.90215 51.9732 11.1739 52.5 12.5 52.5H45C46.3261 52.5 47.5979 51.9732 48.5355 51.0355C49.4732 50.0979 50 48.8261 50 47.5V43.525L36.975 30.525L24.475 43.025ZM18.75 15C20.4076 15 21.9973 15.6585 23.1694 16.8306C24.3415 18.0027 25 19.5924 25 21.25C25 22.9076 24.3415 24.4973 23.1694 25.6694C21.9973 26.8415 20.4076 27.5 18.75 27.5C17.0924 27.5 15.5027 26.8415 14.3306 25.6694C13.1585 24.4973 12.5 22.9076 12.5 21.25C12.5 19.5924 13.1585 18.0027 14.3306 16.8306C15.5027 15.6585 17.0924 15 18.75 15ZM18.75 17.5C17.7554 17.5 16.8016 17.8951 16.0983 18.5983C15.3951 19.3016 15 20.2554 15 21.25C15 22.2446 15.3951 23.1984 16.0983 23.9017C16.8016 24.6049 17.7554 25 18.75 25C19.7446 25 20.6984 24.6049 21.4017 23.9017C22.1049 23.1984 22.5 22.2446 22.5 21.25C22.5 20.2554 22.1049 19.3016 21.4017 18.5983C20.6984 17.8951 19.7446 17.5 18.75 17.5Z" fill="black"/>
</svg>
